<svg width="25" height="25" viewBox="0 0 25 25" fill="none" xmlns="http://www.w3.org/2000/svg">
<path d="M14.9888 16.055L14.4322 15.95L14.056 16.3733L12.8835 17.6923C12.8674 17.7105 12.8476 17.725 12.8255 17.7349C12.8033 17.7449 12.7793 17.75 12.7551 17.75H12.755H10.9375H9.9375V18.75V20.7031C9.9375 20.7981 9.86056 20.875 9.76562 20.875H7.8125H6.8125V21.875V23.8281C6.8125 23.9231 6.73556 24 6.64062 24H1.17188C1.07694 24 1 23.9231 1 23.8281V20.0167C1 19.9711 1.01809 19.9274 1.05032 19.8951C1.05035 19.8951 1.05037 19.895 1.0504 19.895L8.95081 11.9946L9.38626 11.5592L9.19339 10.9743C8.94672 10.2263 8.8125 9.42656 8.8125 8.59375C8.8125 4.39985 12.2123 1.00004 16.4062 1C20.6141 0.999957 24 4.38582 24 8.5938C24 12.7877 20.6002 16.1875 16.4062 16.1875C15.9217 16.1875 15.4481 16.1416 14.9888 16.055ZM15.4062 6.25C15.4062 8.09672 16.9033 9.59375 18.75 9.59375C20.5967 9.59375 22.0938 8.09672 22.0938 6.25C22.0938 4.40328 20.5967 2.90625 18.75 2.90625C16.9033 2.90625 15.4062 4.40328 15.4062 6.25Z" stroke="#F8B602" stroke-width="2"/>
</svg>
