<svg width="26" height="26" viewBox="0 0 26 26" fill="none" xmlns="http://www.w3.org/2000/svg">
<path d="M14.9716 23.8332H11.0283C10.7812 23.8332 10.5415 23.7488 10.349 23.5939C10.1565 23.439 10.0227 23.223 9.96987 22.9817L9.52895 20.9407C8.94077 20.6829 8.38304 20.3607 7.86604 19.9798L5.87596 20.6135C5.6404 20.6886 5.38623 20.6809 5.15567 20.5916C4.9251 20.5024 4.73201 20.3369 4.60846 20.1228L2.63246 16.7092C2.5102 16.4948 2.4643 16.2453 2.50229 16.0015C2.54027 15.7577 2.65987 15.5339 2.84154 15.3669L4.38529 13.9586C4.31509 13.3206 4.31509 12.6769 4.38529 12.0389L2.84154 10.6338C2.65962 10.4668 2.53985 10.2428 2.50186 9.99877C2.46387 9.7547 2.50992 9.50497 2.63246 9.2905L4.60412 5.87475C4.72768 5.6606 4.92077 5.49514 5.15134 5.40587C5.3819 5.3166 5.63607 5.30889 5.87162 5.384L7.86171 6.01775C8.12604 5.82275 8.40121 5.64075 8.68504 5.47609C8.95912 5.32225 9.24079 5.1825 9.52895 5.05792L9.97096 3.01909C10.0236 2.77772 10.1571 2.56158 10.3494 2.40652C10.5417 2.25145 10.7813 2.16676 11.0283 2.1665H14.9716C15.2187 2.16676 15.4582 2.25145 15.6505 2.40652C15.8428 2.56158 15.9763 2.77772 16.029 3.01909L16.4753 5.059C17.0627 5.31821 17.6203 5.6404 18.1382 6.01992L20.1294 5.38617C20.3648 5.31133 20.6187 5.31919 20.849 5.40844C21.0794 5.4977 21.2723 5.66299 21.3958 5.87692L23.3675 9.29267C23.6188 9.73359 23.5321 10.2915 23.1584 10.6349L21.6146 12.0433C21.6848 12.6812 21.6848 13.325 21.6146 13.9629L23.1584 15.3713C23.5321 15.7158 23.6188 16.2726 23.3675 16.7135L21.3958 20.1293C21.2722 20.3434 21.0791 20.5089 20.8486 20.5981C20.618 20.6874 20.3638 20.6951 20.1283 20.62L18.1382 19.9863C17.6216 20.3669 17.0642 20.6888 16.4764 20.9461L16.029 22.9817C15.9761 23.2228 15.8425 23.4387 15.6502 23.5936C15.4579 23.7484 15.2185 23.833 14.9716 23.8332ZM12.9956 8.6665C11.8464 8.6665 10.7442 9.12305 9.93149 9.93571C9.11883 10.7484 8.66229 11.8506 8.66229 12.9998C8.66229 14.1491 9.11883 15.2513 9.93149 16.064C10.7442 16.8766 11.8464 17.3332 12.9956 17.3332C14.1449 17.3332 15.2471 16.8766 16.0598 16.064C16.8724 15.2513 17.329 14.1491 17.329 12.9998C17.329 11.8506 16.8724 10.7484 16.0598 9.93571C15.2471 9.12305 14.1449 8.6665 12.9956 8.6665Z" fill="#202020"/>
</svg>
