<svg width="24" height="19" viewBox="0 0 24 19" fill="none" xmlns="http://www.w3.org/2000/svg">
<path d="M22.8 0H1.2C0.537375 0 0 0.701894 0 1.56738V17.2412C0 18.1067 0.537375 18.8086 1.2 18.8086H22.8C23.4626 18.8086 24 18.1067 24 17.2412V1.56738C24 0.701894 23.4626 0 22.8 0ZM1.8 16.4575V13.3228C3.12563 13.3228 4.2 14.7261 4.2 16.4575H1.8ZM1.8 5.48584V2.35107H4.2C4.2 4.08254 3.12563 5.48584 1.8 5.48584ZM12 14.1064C10.3429 14.1064 9 12.0008 9 9.4043C9 6.80734 10.3433 4.70215 12 4.70215C13.6568 4.70215 15 6.80734 15 9.4043C15 12.0017 13.6564 14.1064 12 14.1064ZM22.2 16.4575H19.8C19.8 14.7261 20.8744 13.3228 22.2 13.3228V16.4575ZM22.2 5.48584C20.8744 5.48584 19.8 4.08254 19.8 2.35107H22.2V5.48584Z" fill="white"/>
</svg>
