<svg width="20" height="20" viewBox="0 0 20 20" fill="none" xmlns="http://www.w3.org/2000/svg">
<path d="M20 13.4886V16.2793C20 16.4053 19.9647 16.5143 19.894 16.6063C19.8233 16.6984 19.7396 16.7444 19.6429 16.7444H4.28571V19.5351C4.28571 19.6611 4.25037 19.7701 4.17969 19.8621C4.109 19.9542 4.0253 20.0002 3.92857 20.0002C3.83929 20.0002 3.75 19.9518 3.66071 19.8549L0.100446 15.2037C0.0334821 15.1165 0 15.0099 0 14.8839C0 14.7483 0.0334821 14.6368 0.100446 14.5496L3.67188 9.89847C3.73884 9.81126 3.8244 9.76766 3.92857 9.76766C4.0253 9.76766 4.109 9.81368 4.17969 9.90574C4.25037 9.99779 4.28571 10.1068 4.28571 10.2328V13.0235H19.6429C19.7396 13.0235 19.8233 13.0695 19.894 13.1616C19.9647 13.2536 20 13.3626 20 13.4886ZM20 5.58161C20 5.71727 19.9665 5.8287 19.8996 5.91591L16.3281 10.5671C16.2612 10.6543 16.1756 10.6979 16.0714 10.6979C15.9747 10.6979 15.891 10.6519 15.8203 10.5598C15.7496 10.4678 15.7143 10.3587 15.7143 10.2328V7.44208H0.357143C0.260417 7.44208 0.176711 7.39605 0.106027 7.30399C0.0353423 7.21194 0 7.10293 0 6.97696V4.18626C0 4.06029 0.0353423 3.95128 0.106027 3.85923C0.176711 3.76717 0.260417 3.72115 0.357143 3.72115H15.7143V0.930448C15.7143 0.794789 15.7478 0.683355 15.8147 0.596146C15.8817 0.508937 15.9673 0.465332 16.0714 0.465332C16.1607 0.465332 16.25 0.513782 16.3393 0.610681L19.8996 5.24731C19.9665 5.33452 20 5.44595 20 5.58161Z" fill="#C5BFBF"/>
</svg>
